<svg xmlns="http://www.w3.org/2000/svg" width="30" height="15" viewbox="0 0 30 15" fill="none">
    <g clip-path="url(#clip0_50_3142)">
        <path d="M7.61816 14.9999C8.08904 14.7918 8.28808 14.5474 8.18945 14.1891C8.13425 13.9885 7.98629 13.7939 7.83422 13.6413C6.47441 12.2756 5.1046 10.9199 3.73715 9.56184C3.29503 9.12339 2.85057 8.68726 2.33506 8.17865H2.76778C11.37 8.17865 19.9716 8.17865 28.5738 8.17865C28.7981 8.17865 29.023 8.18567 29.2473 8.1769C29.6976 8.15819 30.0012 7.87582 30 7.48881C29.9988 7.11466 29.7094 6.83872 29.2731 6.80247C29.1762 6.79429 29.0782 6.79955 28.9801 6.79955C20.2511 6.79955 11.5221 6.79955 2.79361 6.79955H2.365C2.49006 6.66743 2.56522 6.58324 2.64507 6.50432C4.39768 4.76042 6.1503 3.0171 7.90292 1.27262C8.24933 0.92828 8.3057 0.57342 8.06967 0.267083C7.84068 -0.0299007 7.43849 -0.088362 7.13729 0.136714C7.04393 0.206283 6.95821 0.28696 6.87542 0.368805C4.69947 2.52895 2.52353 4.6891 0.351692 6.85333C0.216063 6.98838 0.116247 7.1585 -7.62939e-06 7.31225V7.66185C0.13797 7.83607 0.25951 8.02607 0.415689 8.18216C2.54584 10.3066 4.67892 12.4276 6.81847 14.5427C6.9999 14.7216 7.23299 14.8485 7.44201 14.9993H7.61757L7.61816 14.9999Z" fill="black" fill-opacity="0.3"/>
    </g>
    <defs>
        <clipPath id="clip0_50_3142">
            <rect width="30" height="15" fill="white" transform="matrix(-1 0 0 1 30 0)"/>
        </clipPath>
    </defs>
</svg>
